<svg viewBox="0 0 1080 1080" fill="none" xmlns="http://www.w3.org/2000/svg">      <defs>  <filter id="filter" x="-20%" y="-20%" width="140%" height="140%" filterUnits="objectBoundingBox" primitiveUnits="userSpaceOnUse" color-interpolation-filters="linearRGB">    <feMorphology operator="dilate" radius="20 20" in="SourceAlpha" result="morphology"/>    <feFlood flood-color="#ffffff" flood-opacity="1" result="flood"/>    <feComposite in="flood" in2="morphology" operator="in" result="composite"/>    <feMerge result="merge">          <feMergeNode in="composite" result="mergeNode"/>      <feMergeNode in="SourceGraphic" result="mergeNode1"/>      </feMerge>  </filter></defs>      <g id="notion-avatar" filter="url(#filter)">        <g id="notion-avatar-face" fill="#ffffff">      <!--?xml version="1.0" encoding="UTF-8"?-->    <!-- Generator: Sketch 63.1 (92452) - https://sketch.com -->    <title>Face/ 14</title>    <desc>Created with Sketch.</desc>    <g id="Face/-14" stroke="none" stroke-width="1" fill-rule="evenodd" stroke-linecap="round" stroke-linejoin="round">        <path d="M532,379 C664.54834,379 772,486.45166 772,619 C772,642.160109 783.234546,656.244677 777.453024,678.979248 C763.583554,733.517917 758.701879,941.343666 598,909 C539.618945,897.249936 461,880 433,858 C405,836 342.170039,758.772836 320.189513,718.584987 C317.498129,718.859681 314.765451,719 312,719 C267.81722,719 232,683.18278 232,639 C232,599.134956 261.158843,566.080325 299.312086,560.00055 C325.599297,455.979213 419.809919,379 532,379 Z M295.858895,624.545187 L304.141105,655.454813" id="Path" stroke="#000000" stroke-width="24"/>    </g>    </g><g id="notion-avatar-nose">      <!--?xml version="1.0" encoding="UTF-8"?-->    <title>Nose/ 4</title>    <g id="Nose/-4" stroke="none" stroke-width="1" fill="none" fill-rule="evenodd" stroke-linecap="round" stroke-linejoin="round">        <path d="M636.843426,596.000252 C661.659687,637.453214 673.277876,666.226337 671.697992,682.319621 C670.118108,698.412905 655.181344,703.444023 626.8877,697.412976" id="Line" stroke="#000000" stroke-width="16" transform="translate(649.363766, 647.939652) rotate(1.032339) translate(-649.363766, -647.939652) "/>    </g>    </g><g id="notion-avatar-mouth">      <g id="Mouth/ 12"><g id="Group"><path id="Path" fill-rule="evenodd" clip-rule="evenodd" d="M543.87 801.555C524.148 789.209 514.057 767.766 521.396 758.019C528.734 748.272 569 762.637 609 762.319C649 762 689.266 748.272 696.604 758.019C703.943 767.766 693.852 789.209 674.13 801.555C665.101 807.207 637.818 814 609.443 814C581.069 814 552.807 807.15 543.87 801.555Z" stroke="black" stroke-width="16" stroke-linecap="round" stroke-linejoin="round"/><path id="Path_2" d="M569.322 804C569.322 804 589.161 796 609 796C628.838 796 648.677 804 648.677 804" stroke="black" stroke-width="8" stroke-linecap="round" stroke-linejoin="round"/></g></g>    </g><g id="notion-avatar-eyes">      <!--?xml version="1.0" encoding="UTF-8"?-->    <title>Eyes/ 3</title>    <g id="Eyes/-3" stroke="none" stroke-width="1" fill="none" fill-rule="evenodd" stroke-linecap="round" stroke-linejoin="round">        <g id="Group" transform="translate(533.944954, 540.730159)" stroke="#000000" stroke-width="12">            <path d="M146.275229,-1.43884904e-13 C159.958467,9.35202544 170.38232,14.8216846 177.546789,16.4089776 C184.711258,17.9962705 196.232359,17.3885306 212.110092,14.5857578" id="Path" transform="translate(179.192661, 8.634921) scale(-1, 1) translate(-179.192661, -8.634921) "/>            <path d="M6.39488462e-14,-1.43884904e-13 C13.6832373,9.35202544 24.1070905,14.8216846 31.2715596,16.4089776 C38.4360288,17.9962705 49.9571297,17.3885306 65.8348624,14.5857578" id="Path"/>        </g>    </g>    </g><g id="notion-avatar-eyebrows">      <!--?xml version="1.0" encoding="UTF-8"?-->    <title>Eyebrows/ 1</title>    <g id="Eyebrows/-1" stroke="none" stroke-width="1" fill="none" fill-rule="evenodd" stroke-linecap="square" stroke-linejoin="round">        <g id="Group" transform="translate(521.000000, 490.000000)" stroke="#000000" stroke-width="20">            <path d="M0,16 C12.8888889,5.33333333 27.8888889,0 45,0 C62.1111111,0 77.1111111,5.33333333 90,16" id="Path"/>            <path d="M146,16 C158.888889,5.33333333 173.888889,0 191,0 C208.111111,0 223.111111,5.33333333 236,16" id="Path"/>        </g>    </g>    </g><g id="notion-avatar-glasses">      <!--?xml version="1.0" encoding="UTF-8"?-->    <title>Glasses/ 4</title>    <g id="Glasses/-4" stroke="none" stroke-width="1" fill="none" fill-rule="evenodd" stroke-linecap="round" stroke-linejoin="round">        <g id="Group" transform="translate(289.000000, 479.000000)" fill="#000000" stroke="#000000" stroke-width="4">            <path d="M229.149255,4.2334278 C247.672154,8.12981325 283.261021,21.6236388 324.690343,35.0615291 L325.464481,35.3078466 C331.11768,37.0729902 339.032765,38.8353007 349.209737,40.594778 L349.209737,57.984989 C344.161954,60.5093754 341.061801,62.8807678 339.909277,65.0991662 C325.535839,92.7654109 298.479956,110.946086 257.050634,101.460516 C200.767297,88.5740028 181.801459,20.8331746 180.110466,9.76667675 C178.419474,-1.29982114 196.205221,-2.69651627 229.149255,4.2334278 Z M519.889534,9.76667675 C518.198541,20.8331746 499.232703,88.5740028 442.949366,101.460516 C401.520044,110.946086 374.464161,92.7654109 360.090723,65.0991662 C358.969348,62.9407245 356.004199,60.637447 351.195275,58.1893337 L350.790263,57.984989 L350.790263,40.594778 L352.195626,40.3492512 C362.16219,38.5895103 369.866867,36.8269363 375.309657,35.0615291 L377.788318,34.2552658 C418.155707,21.0877247 452.698304,8.05188555 470.850745,4.2334278 L472.809163,3.82763387 C504.498419,-2.63678054 521.546707,-1.07849118 519.889534,9.76667675 Z M213.93032,27.1568877 C197.020393,46.9184911 229.149255,89.6035544 261.278116,97.5081958 C293.406978,105.412837 334.836299,80.9084489 327.226832,57.984989 C319.617364,35.0615291 239.295211,8.97621262 213.93032,27.1568877 Z M486.06968,27.1568877 C460.704789,8.97621262 380.382636,35.0615291 372.773168,57.984989 C365.163701,80.9084489 406.593022,105.412837 438.721884,97.5081958 C470.850745,89.6035544 502.979607,46.9184911 486.06968,27.1568877 Z" id="Combined-Shape"/>            <polygon id="Path" points="199 30 4 62 0 71 199 51"/>        </g>    </g>    </g><g id="notion-avatar-hair">      <g id="Hairstyle/ 35"><path id="Path" fill-rule="evenodd" clip-rule="evenodd" d="M445 265C601.485 215.883 723 324 727 324C729.667 324 729.333 314 732 310C732 310 764 352 760 396C756 440 752.216 445.551 737 470C717.816 433.899 655.516 405.849 570.098 405.849C529.82 405.849 496.705 408.638 444 422C444 422 429.543 433.177 425 438C415.42 448.172 412.102 455.977 408 461C408 461 408.354 437.736 409.769 431.439C399.445 434.309 388.894 437.421 378.119 440.774C378.861 449.966 379.156 482.708 387 499L371 622L368.124 619.455C345.932 599.757 331.688 585.779 325.391 577.52L325 577C318.661 568.473 305.994 562.473 287 559L286.069 555.564C277.514 524.212 269.945 502.053 266.881 480.742C254.807 485.592 242.513 490.679 230 496C269.01 358.746 340.677 297.746 445 265Z" fill="black" stroke="black" stroke-width="12" stroke-linecap="round" stroke-linejoin="round"/></g>    </g><g id="notion-avatar-accessories">      <!--?xml version="1.0" encoding="UTF-8"?-->    <title>Accessories/ 0</title>    <g id="Accessories/-0" stroke="none" stroke-width="1" fill="none" fill-rule="evenodd"/>    </g><g id="notion-avatar-details">      <!--?xml version="1.0" encoding="UTF-8"?-->    <title>Details/ 0</title>    <g id="Details/-0" stroke="none" stroke-width="1" fill="none" fill-rule="evenodd"/>    </g><g id="notion-avatar-beard">      <!--?xml version="1.0" encoding="UTF-8"?-->    <title>Beard/ 0</title>    <g id="Beard/-0" stroke="none" stroke-width="1" fill="none" fill-rule="evenodd"/>    </g>      </g>      </svg>